<?xml version="1.0" encoding="UTF-8"?>
<svg version="1.1" xmlns="http://www.w3.org/2000/svg" width="550" height="550">
<path d="M0 0 C-0.56656798 6.11893423 -3.10651129 11.32363807 -5.5625 16.875 C-5.98724609 17.84953125 -6.41199219 18.8240625 -6.84960938 19.828125 C-7.89375504 22.22144765 -8.94402214 24.61188014 -10 27 C-15.07002952 26.21651847 -19.94605857 25.024754 -24.90234375 23.71875 C-31.02198448 22.29880814 -37.02650029 21.83448244 -43.29296875 21.796875 C-44.0728717 21.78990601 -44.85277466 21.78293701 -45.65631104 21.77575684 C-48.16676255 21.758418 -50.67699106 21.75203481 -53.1875 21.75 C-54.04248077 21.74899292 -54.89746155 21.74798584 -55.77835083 21.74694824 C-68.40601103 21.75703151 -80.64360004 22.16017985 -93 25 C-93.65822754 25.14453613 -94.31645508 25.28907227 -94.99462891 25.43798828 C-121.29481124 31.34718576 -146.80420795 44.15740496 -167 62 C-167.48952148 62.42394043 -167.97904297 62.84788086 -168.48339844 63.28466797 C-175.79286755 69.62772978 -182.09422744 76.29775382 -188 84 C-188.73863281 84.92296875 -189.47726563 85.8459375 -190.23828125 86.796875 C-203.95239409 104.32441127 -211.56727742 124.18837678 -219 145 C-189.63 145 -160.26 145 -130 145 C-129.34 143.35 -128.68 141.7 -128 140 C-114.72767713 121.01036882 -96.05196631 109.19452329 -73.62890625 104.2578125 C-50.62089943 100.22519666 -27.33494676 105.33392964 -8.18359375 118.65625 C9.14246369 131.41162971 20.51918297 148.90397944 25 170 C25 171.32 25 172.64 25 174 C-66.74 174 -158.48 174 -253 174 C-250.65889486 151.75950112 -250.65889486 151.75950112 -248.8125 144.0625 C-248.59891846 143.15338867 -248.38533691 142.24427734 -248.1652832 141.30761719 C-245.79896979 131.62091485 -242.63916456 122.27701165 -239 113 C-238.70254883 112.2373584 -238.40509766 111.4747168 -238.09863281 110.68896484 C-229.50154128 89.07541202 -215.98533549 69.80633459 -200 53 C-199.4730957 52.44054687 -198.94619141 51.88109375 -198.40332031 51.3046875 C-185.767129 37.96609139 -171.9859721 27.11108005 -156 18 C-155.38108887 17.64341309 -154.76217773 17.28682617 -154.12451172 16.91943359 C-106.68530949 -10.17693668 -52.21192707 -13.76001828 0 0 Z " fill="#FFDE58" transform="translate(279,145)"/>
<path d="M0 0 C2.92983867 2.92983867 3.43170558 6.52787975 4.4375 10.4375 C4.65631836 11.28135254 4.87513672 12.12520508 5.10058594 12.99462891 C10.68419317 35.2424583 12.22295155 57.92989204 10.1875 80.75 C10.11748779 81.57628906 10.04747559 82.40257812 9.9753418 83.25390625 C9.48546365 88.21618138 8.59859525 92.97396448 7.4543457 97.82910156 C7.04657646 99.56767426 7.04657646 99.56767426 6.63056946 101.34136963 C6.31843758 102.65739166 6.31843758 102.65739166 6 104 C5.10161628 103.98975564 5.10161628 103.98975564 4.18508339 103.97930431 C-10.42250193 103.81723593 -25.0293075 103.72763424 -39.63774681 103.71759319 C-46.70274623 103.71100955 -53.76607691 103.68036416 -60.83056641 103.59204102 C-67.65231001 103.50682163 -74.47153048 103.49002653 -81.29375076 103.51441383 C-83.89247746 103.51262587 -86.4912935 103.48814753 -89.08958054 103.44031334 C-103.30543791 102.44951349 -103.30543791 102.44951349 -115.7366333 107.84024048 C-118.3845835 110.9330789 -120.15790346 114.37656425 -122 118 C-133.51851973 131.64568124 -153.16825367 142.88877988 -171 145 C-194.18865458 146.7288263 -216.95344369 143.67054466 -235.6875 128.8125 C-237.1337355 127.55161678 -238.57258943 126.28215548 -240 125 C-241.03125 124.21625 -242.0625 123.4325 -243.125 122.625 C-256.72586368 110.20682012 -265.00249997 92.98500016 -268 75 C-185.83 75 -103.66 75 -19 75 C-19 52.95991604 -20.00890669 33.40923049 -26.01171875 12.54296875 C-27 9 -27 9 -27 7 C-23.19535732 5.95146447 -19.38690629 4.91832194 -15.57421875 3.89941406 C-13.63840981 3.37860775 -11.70589902 2.84559283 -9.7734375 2.3125 C-8.56171875 1.99023438 -7.35 1.66796875 -6.1015625 1.3359375 C-4.42054443 0.88033447 -4.42054443 0.88033447 -2.70556641 0.41552734 C-1.36631104 0.20984131 -1.36631104 0.20984131 0 0 Z " fill="#FFDE58" transform="translate(406,271)"/>
<path d="M0 0 C9.57 0 19.14 0 29 0 C29.391875 2.3925 29.78375 4.785 30.1875 7.25 C38.33133249 54.22690917 61.39954332 95.63837781 100.74267578 123.47460938 C137.43588772 148.27010885 183.02809118 157.75349103 226.54150391 149.49609375 C256.5561038 143.43952305 287.09738517 129.45210945 308.6875 107.234375 C311 105 311 105 313 105 C313.40412109 104.09701172 313.40412109 104.09701172 313.81640625 103.17578125 C315.01040135 100.98087936 316.08570519 99.83102449 317.9375 98.1875 C329.94077058 86.48368732 338.57832001 70.84335998 346 56 C356.56 56 367.12 56 378 56 C369.14330421 79.02740906 357.38135699 99.97661861 340.109375 117.78515625 C337.86833591 120.0110021 337.86833591 120.0110021 336 123 C335.34 123 334.68 123 334 123 C333.75894531 123.57492187 333.51789063 124.14984375 333.26953125 124.7421875 C319.34781303 149.5014279 276.5682882 166.61838778 250.76074219 174.22998047 C199.76629655 188.45322786 146.20921044 182.99377688 99.59716797 157.48388672 C84.03414684 148.59198576 70.38214071 137.59900384 57.39794922 125.31884766 C56.2750702 124.25950562 55.14121687 123.21180178 54.00390625 122.16796875 C21.11258596 91.01192195 3.68557423 44.22689073 0 0 Z " fill="#FFDE58" transform="translate(26,346)"/>
<path d="M0 0 C10.53869778 3.7878168 20.74439138 7.96194028 30.8125 12.875 C31.46865295 13.19336823 32.12480591 13.51173645 32.80084229 13.8397522 C53.22210757 23.78658384 72.86687131 35.28193591 91 49 C91.60553711 49.45681152 92.21107422 49.91362305 92.83496094 50.38427734 C101.3111334 56.82242557 109.43758627 63.65916199 117.45605469 70.65576172 C118.84199457 71.86243233 120.2368492 73.05884568 121.6328125 74.25390625 C125.76754621 77.83500612 129.48699877 81.52207785 133.01171875 85.703125 C134.97956021 87.97638782 137.03161047 90.15310319 139.10449219 92.33032227 C160.95944623 115.43102272 199 163.47537452 199 197 C194.92693379 198.43008021 190.85180574 199.85407095 186.7746582 201.27246094 C185.38800757 201.75581792 184.00193379 202.24083311 182.61645508 202.72753906 C180.62470502 203.42689953 178.63095545 204.12026718 176.63671875 204.8125 C175.43748779 205.23144531 174.23825684 205.65039062 173.00268555 206.08203125 C170 207 170 207 167 207 C166.70867187 206.29617187 166.41734375 205.59234375 166.1171875 204.8671875 C151.79902829 170.37753355 135.32732539 139.73271015 109.9140625 112.1015625 C108.19460749 110.21367108 106.56066622 108.28286755 104.9375 106.3125 C102.26567452 103.17219005 99.30919393 100.52322825 96.16796875 97.859375 C93.90834545 95.92139177 91.74183886 93.90263615 89.5625 91.875 C77.37525045 80.91765637 63.95985675 71.54161896 50 63 C49.28183105 62.55978516 48.56366211 62.11957031 47.82373047 61.66601562 C28.79912346 50.11039089 8.79347289 39.96407388 -12 32 C-9.70145079 24.86631492 -7.06902585 17.90575116 -4.3125 10.9375 C-3.89677734 9.88111328 -3.48105469 8.82472656 -3.05273438 7.73632812 C-2.03723432 5.15672453 -1.01961715 2.57797839 0 0 Z " fill="#37B6FF" transform="translate(337,22)"/>
<path d="M0 0 C22.79803127 7.18446613 45.72794908 18.88302443 65 33 C65.61246582 33.44698242 66.22493164 33.89396484 66.85595703 34.35449219 C83.74315099 46.7213149 100.62078749 59.77349513 114 76 C114.77988281 76.86882812 115.55976563 77.73765625 116.36328125 78.6328125 C133.9727197 98.39864168 146.69125558 121.77566913 157 146 C157.39106934 146.8859082 157.78213867 147.77181641 158.18505859 148.68457031 C158.74894287 150.00473145 158.74894287 150.00473145 159.32421875 151.3515625 C159.66928467 152.14643066 160.01435059 152.94129883 160.36987305 153.76025391 C161.12083473 156.42949934 161.3203642 157.53733435 160 160 C157.25610352 161.37207031 157.25610352 161.37207031 153.62890625 162.578125 C152.67261574 162.90257599 152.67261574 162.90257599 151.69700623 163.23358154 C149.65696493 163.92114934 147.61009721 164.58531733 145.5625 165.25 C144.18636699 165.71210886 142.81070869 166.17563398 141.43554688 166.640625 C131.40303639 170 131.40303639 170 129 170 C128.79955078 169.47792969 128.59910156 168.95585937 128.39257812 168.41796875 C104.35566765 106.17272666 60.46642468 64.02440355 -0.14794922 36.81347656 C-4.05528842 35.09725534 -8.00228919 33.49300256 -12 32 C-8.27641107 21.21215547 -4.33383119 10.55795046 0 0 Z " fill="#37B6FF" transform="translate(308,79)"/>
<path d="M0 0 C5.76657328 0.96227402 10.57839988 3.41926669 15.8125 5.9375 C16.83625732 6.42968018 17.86001465 6.92186035 18.91479492 7.42895508 C31.5723184 13.61939135 43.33670138 20.74024667 54 30 C54.80566406 30.69609375 55.61132812 31.3921875 56.44140625 32.109375 C78.97964085 52.0022769 92.84018267 73.28005871 104 101 C100.05965532 105.70908906 93.67638368 106.83335904 88.0625 108.75 C86.27295898 109.38615234 86.27295898 109.38615234 84.44726562 110.03515625 C83.30064453 110.43089844 82.15402344 110.82664062 80.97265625 111.234375 C79.39883179 111.77916504 79.39883179 111.77916504 77.79321289 112.33496094 C74.97333892 113.00634776 73.61420378 113.21612332 71 112 C69.72801903 109.59232174 68.72235923 107.3381348 67.75 104.8125 C53.22685411 69.61694574 25.25075906 47.60485252 -9.1328125 33.1796875 C-10.07898438 32.79039062 -11.02515625 32.40109375 -12 32 C-9.94400621 24.55838512 -7.29150906 17.49231351 -4.3125 10.375 C-3.68891602 8.86873047 -3.68891602 8.86873047 -3.05273438 7.33203125 C-2.03945904 4.88619424 -1.02183204 2.4422715 0 0 Z " fill="#37B6FF" transform="translate(295,149)"/>
</svg>
