<?xml version="1.0" encoding="utf-8"?>
<svg xmlns="http://www.w3.org/2000/svg" viewBox="29.923 1.4178 960.931 247.1794" width="960.931px" height="247.179px">
  <g id="object-0">
    <path fill="#38B6FF" opacity="1.000000" stroke="none" d="M 894.122 149.571 C 896.425 142.62 898.319 136.045 900.68 129.65 C 901.2 128.243 903.348 126.613 904.807 126.549 C 912.135 126.235 919.495 126.189 926.815 126.583 C 928.322 126.665 930.476 128.75 931.037 130.373 C 940.556 157.876 949.891 185.446 959.214 213.018 C 961.03 218.389 959.977 219.764 954.365 219.813 C 952.325 219.831 950.286 219.816 948.247 219.816 C 936.72 219.816 936.82 219.773 932.286 209.183 C 931.69 207.791 929.487 206.304 927.982 206.253 C 919.63 205.969 911.261 206.263 902.905 206.048 C 899.319 205.956 898.858 208.148 898.017 210.824 C 894.786 221.09 894.697 221.062 884.257 221.062 C 879.59 221.062 874.922 221.062 869.444 221.062 C 873.005 210.609 876.325 200.778 879.703 190.967 C 884.408 177.307 889.153 163.662 894.122 149.571 M 910.358 173.117 C 908.875 177.79 907.391 182.463 905.965 186.955 C 912.561 186.955 918.714 186.955 925.113 186.955 C 922.325 178.479 919.707 170.518 917.025 162.366 C 910.709 162.978 913.188 169.378 910.358 173.117 Z" style=""/>
    <path fill="#FFDE59" opacity="1.000000" stroke="none" d="M 304.928 190.035 C 314.206 189.944 322.967 189.944 331.795 189.944 C 327.422 210.613 306.785 225.408 280.616 222.134 C 256.909 219.168 241.185 200.58 240.143 177.125 C 238.779 146.466 258.739 129.186 279.39 126.608 C 307.617 123.083 325.842 136.497 332.195 158.775 C 323.328 158.775 314.698 158.881 306.076 158.645 C 304.96 158.614 303.732 156.948 302.823 155.817 C 296.457 147.896 288.931 145.901 279.862 149.259 C 271.087 152.508 265.712 158.934 264.623 168.897 C 263.571 178.533 264.462 187.139 271.942 194.291 C 281.761 203.679 297.217 201.878 304.928 190.035 Z" style=""/>
    <path fill="#FFDE59" opacity="1.000000" stroke="none" d="M 150.565 65.525 C 149.722 67.431 148.878 69.336 147.166 71.436 C 144.524 71.965 142.754 72.302 140.984 72.638 C 140.777 72.693 140.57 72.748 139.947 72.357 C 138.358 71.855 137.186 71.799 136.014 71.742 C 118.555 70.703 101.768 72.593 86.039 81.447 C 66.252 92.585 53.757 109.299 46.818 131.384 C 60.238 131.384 73.238 131.565 86.223 131.19 C 88.179 131.133 90.495 128.823 91.908 126.974 C 99.769 116.686 110.2 111.998 122.769 111.44 C 143.107 110.537 160.876 126.291 163.691 146.077 C 119.272 146.077 74.887 146.077 30.362 146.077 C 30.479 144.088 30.602 141.986 31.309 139.369 C 35.089 139.181 35.975 137.58 37.167 134.531 C 41.758 122.791 46.672 111.131 52.349 99.903 C 54.461 95.724 52.9 94.471 50.251 92.636 C 54.079 88.594 57.908 84.551 62.479 80.666 C 65.71 80.651 68.489 81.153 70.638 80.193 C 82.067 75.097 93.347 69.656 104.654 64.281 C 106.617 63.348 108.464 62.161 110.803 60.844 C 116.564 64.115 117.214 63.81 117.69 56.862 C 121.407 56.8 125.124 56.738 129.472 57.202 C 131.687 62.786 134.282 64.589 137.346 61.508 C 142.424 63.051 146.495 64.288 150.565 65.525 Z" style=""/>
    <path fill="#FFDE59" opacity="1.000000" stroke="none" d="M 641.601 146.355 C 655.085 149.985 664.722 157.547 668.126 171.147 C 669.787 177.781 669.713 184.864 670.487 192.356 C 652.549 192.356 636.475 192.356 620.301 192.356 C 622.866 202.182 632.523 205.275 639.789 199.254 C 641.756 197.622 644.616 196.442 647.139 196.29 C 653.841 195.883 660.584 196.151 667.332 196.151 C 666.384 208.399 652.098 221.135 636.881 222.424 C 619.461 223.901 606.641 217.003 597.698 202.179 C 596.464 200.132 596.249 197.303 596.03 194.793 C 594.81 180.824 593.931 166.767 605.135 155.93 C 614.159 147.203 624.922 143.577 637.406 146.261 C 638.582 146.513 639.849 146.322 641.601 146.355 M 620.453 175.979 C 627.921 175.979 635.389 175.979 643.011 175.979 C 644.055 171.359 641.519 169.026 637.966 167.553 C 630.092 164.291 624.123 166.841 620.453 175.979 Z" style=""/>
    <path fill="#FFDE59" opacity="1.000000" stroke="none" d="M 393.206 218.59 C 368.098 230.661 336.752 214.567 336.784 185.757 C 336.801 170.824 341.196 158.86 353.83 151.187 C 373.966 138.957 405.239 146.129 412.242 171.082 C 417.491 189.78 412.172 209.328 393.206 218.59 M 380.942 200.686 C 391.671 196.439 393.924 175.29 382.428 168.378 C 375.361 164.128 364.749 165.072 360.855 179.995 C 359.194 186.357 361.018 192.013 365.244 196.761 C 369.217 201.226 374.094 203.3 380.942 200.686 Z" style=""/>
    <path fill="#FFDE59" opacity="1.000000" stroke="none" d="M 535.611 152.882 C 536.906 152.865 538.29 152.601 539.227 151.797 C 553.967 139.168 580.386 145.424 584.212 166.362 C 586.109 176.742 585.391 187.634 585.658 198.3 C 585.845 205.704 585.694 213.117 585.694 220.789 C 577.917 220.789 570.636 220.789 562.417 220.789 C 562.417 213.628 562.417 206.27 562.417 198.913 C 562.417 193.109 562.437 187.305 562.413 181.501 C 562.373 172.306 557.083 166.306 549.015 166.26 C 541.17 166.215 535.581 172.41 535.494 181.631 C 535.374 194.474 535.465 207.319 535.465 220.612 C 527.901 220.612 520.47 220.612 512.61 220.612 C 512.61 196.318 512.61 171.765 512.61 146.771 C 519.957 146.771 527.559 146.771 535.491 146.771 C 535.491 148.71 535.491 150.547 535.611 152.882 Z" style=""/>
    <path fill="#FFDE59" opacity="1.000000" stroke="none" d="M 496.264 166.572 C 496.676 168.856 497.42 170.602 497.431 172.352 C 497.522 188.299 497.484 204.246 497.484 220.627 C 489.89 220.627 482.462 220.627 474.206 220.627 C 474.206 207.684 474.378 194.511 474.085 181.348 C 474.013 178.097 473.113 174.429 471.394 171.747 C 468.28 166.891 463.126 165.216 457.653 166.598 C 451.188 168.231 447.378 173.756 447.294 181.159 C 447.148 194.193 447.254 207.23 447.254 220.662 C 439.583 220.662 432.158 220.662 424.351 220.662 C 424.351 196.219 424.351 171.669 424.351 146.724 C 431.664 146.724 439.099 146.724 447.064 146.724 C 447.188 148.896 447.321 151.211 447.513 154.569 C 457.152 145.408 467.719 143.254 479.255 147.166 C 488.221 150.206 493.692 156.856 496.264 166.572 Z" style=""/>
    <path fill="#FFDE59" opacity="1.000000" stroke="none" d="M 87.046 169.875 C 85.712 166.081 84.441 162.768 82.934 158.838 C 123.383 158.838 163.078 158.838 204.278 158.838 C 202.792 147.488 201.384 136.737 199.941 125.722 C 203.826 124.734 207.804 123.722 212.661 122.486 C 218.459 139.166 219.594 156.012 215.159 173.732 C 197.984 173.732 180.682 173.773 163.381 173.695 C 160.214 173.681 158.296 174.398 156.064 177.379 C 141.369 196.997 114.569 199.692 95.139 182.306 C 91.688 179.218 89.748 174.385 87.046 169.875 Z" style=""/>
    <path fill="#FFDE59" opacity="1.000000" stroke="none" d="M 153.466 227.705 C 171.306 220.354 184.148 207.812 193.273 191.526 C 195.757 187.095 198.109 185.708 202.56 186.141 C 205.17 186.395 207.824 186.187 210.559 186.187 C 202.719 215.841 171.697 244.93 130.391 248.32 C 86.829 251.897 34.952 220.788 29.923 159.318 C 30.266 159.155 30.605 158.867 30.953 158.853 C 44.716 158.351 43.408 158.725 47.038 171.953 C 50.051 182.925 55.274 193.904 61.945 203.051 C 71.442 216.074 84.545 225.058 100.301 229.948 C 116.814 235.074 132.94 234.239 149.176 229.393 C 150.502 228.998 151.797 228.493 153.466 227.705 Z" style=""/>
    <path fill="#FFDE59" opacity="1.000000" stroke="none" d="M 699.828 174.466 C 699.79 181.116 698.847 187.551 700.273 193.387 C 702.712 203.366 715.669 205.461 720.753 196.693 C 721.365 195.635 723.472 195.02 724.904 194.985 C 731.812 194.812 738.726 194.907 745.598 194.907 C 746.967 209.027 730.594 221.222 716.65 222.277 C 686.81 224.532 674.24 206.545 674.212 184.22 C 674.181 158.904 688.984 145.526 712.081 145.275 C 730.416 145.077 746.552 158.794 745.679 172.485 C 738.389 172.485 731.069 172.526 723.751 172.442 C 722.691 172.43 721.36 172.13 720.625 171.442 C 712.145 163.53 705.673 164.289 699.828 174.466 Z" style=""/>
    <path fill="#FFDE59" opacity="1.000000" stroke="none" d="M 795.194 155.089 C 795.194 158.981 795.194 162.267 795.194 166.101 C 790.299 166.101 785.709 166.101 780.5 166.101 C 780.5 176.526 780.258 186.424 780.734 196.286 C 780.816 197.98 783.731 200.347 785.748 200.93 C 788.527 201.732 791.698 201.131 794.943 201.131 C 794.943 207.817 794.943 213.984 794.943 221.146 C 784.882 219.965 774.392 223.845 764.776 217.029 C 759.751 213.468 757.4 208.65 757.285 202.803 C 757.052 190.817 757.215 178.823 757.215 166.323 C 754.66 166.323 752.52 166.323 750.136 166.323 C 750.136 159.481 750.136 153.154 750.136 146.517 C 752.348 146.517 754.329 146.517 756.846 146.517 C 756.846 140.336 756.846 134.436 756.846 127.667 C 763.984 127.667 770.634 127.465 777.25 127.859 C 778.405 127.928 780.203 130.433 780.342 131.942 C 780.755 136.444 780.49 141.01 780.49 146.099 C 785.314 146.099 789.899 146.099 795.194 146.099 C 795.194 149.251 795.194 151.867 795.194 155.089 Z" style=""/>
    <path fill="#38B6FF" opacity="1.000000" stroke="none" d="M 181.537 1.799 C 226.143 19.603 258.557 49.748 274.787 96.173 C 274.197 96.969 274.016 97.491 273.721 97.571 C 268.963 98.852 263.378 102.168 259.666 100.68 C 256.47 99.398 255.452 92.602 253.391 88.283 C 237.999 56.019 212.779 34.339 181.142 19.957 C 175.226 17.267 173.988 14.31 176.318 8.807 C 177.171 6.791 177.939 4.738 179.346 2.274 C 180.477 1.831 181.007 1.814 181.537 1.799 Z" style=""/>
    <path fill="#38B6FF" opacity="1.000000" stroke="none" d="M 967.94 172.487 C 967.94 157.388 967.94 142.912 967.94 128.044 C 975.647 128.044 983.066 128.044 990.854 128.044 C 990.854 158.758 990.854 189.513 990.854 220.666 C 983.511 220.666 976.092 220.666 967.94 220.666 C 967.94 204.848 967.94 188.978 967.94 172.487 Z" style=""/>
    <path fill="#38B6FF" opacity="1.000000" stroke="none" d="M 164.204 31.741 C 165.348 30.566 166.79 28.999 167.514 29.289 C 190.453 38.46 210.543 51.866 225.167 72.337 C 231.051 80.573 235.372 89.988 240.117 99.023 C 241.275 101.228 241.298 104.05 241.849 106.613 C 240.943 107.132 240.494 107.511 239.979 107.664 C 235.841 108.892 231.025 111.927 227.747 110.709 C 224.976 109.68 224.011 103.694 222.199 99.924 C 210.688 75.956 192.041 59.628 168.735 48.259 C 159.993 43.993 159.297 41.372 164.204 31.741 Z" style=""/>
    <path fill="#FFDE59" opacity="1.000000" stroke="none" d="M 862.262 184.882 C 842.972 184.931 824.271 184.931 805.284 184.931 C 805.284 177.754 805.284 171.039 805.284 164.045 C 824.743 164.045 843.992 164.045 864.203 164.045 C 863.741 171.142 863.297 177.988 862.262 184.882 Z" style=""/>
    <path fill="#38B6FF" opacity="1.000000" stroke="none" d="M 200.71 95.589 C 203.054 99.819 205.282 103.627 206.998 107.66 C 207.543 108.94 207.274 111.745 206.428 112.271 C 202.577 114.667 198.389 116.497 193.759 118.812 C 192.234 115.511 190.823 112.02 189.064 108.72 C 181.914 95.305 170.7 86.497 157.243 80.444 C 153.329 78.685 151.755 77.165 154.766 72.903 C 156.77 70.065 157.519 66.31 159.001 62.529 C 175.975 69.448 190.683 79.03 200.71 95.589 Z" style=""/>
    <path fill="#FFDE59" opacity="1.000000" stroke="none" d="M 117.178 56.77 C 117.214 63.81 116.564 64.115 110.803 60.844 C 108.464 62.161 106.617 63.348 104.654 64.281 C 93.347 69.656 82.067 75.097 70.638 80.193 C 68.489 81.153 65.71 80.651 62.86 80.503 C 73.75 69.337 87.31 62.939 102.168 59.204 C 106.916 58.011 111.829 57.501 117.178 56.77 Z" style=""/>
    <path fill="#FFDE59" opacity="1.000000" stroke="none" d="M 49.86 92.825 C 52.9 94.471 54.461 95.724 52.349 99.903 C 46.672 111.131 41.758 122.791 37.167 134.531 C 35.975 137.58 35.089 139.181 31.401 138.856 C 32.67 122.826 38.54 108.485 48.072 95.638 C 48.654 94.853 49.008 93.893 49.86 92.825 Z" style=""/>
    <path fill="#FFDE59" opacity="1.000000" stroke="none" d="M 150.659 65.101 C 146.495 64.288 142.424 63.051 137.346 61.508 C 134.282 64.589 131.687 62.786 130.023 57.295 C 137.188 58.085 144.434 59.308 152.036 60.592 C 151.539 62.175 151.145 63.426 150.659 65.101 Z" style=""/>
    <path fill="#FFDE59" opacity="1.000000" stroke="none" d="M 141.401 72.846 C 142.754 72.302 144.524 71.965 146.765 71.641 C 146.349 75.793 144.052 74.297 141.401 72.846 Z" style=""/>
    <path fill="#FFDE59" opacity="1.000000" stroke="none" d="M 136.198 72.134 C 137.186 71.799 138.358 71.855 139.636 72.274 C 138.622 72.601 137.502 72.564 136.198 72.134 Z" style=""/>
    <path fill="#38B6FF" opacity="1.000000" stroke="none" d="M 181.385 1.44 C 181.007 1.814 180.477 1.831 179.549 1.85 C 179.846 1.596 180.539 1.34 181.385 1.44 Z" style=""/>
  </g>
</svg>